<svg width="153" height="49" viewBox="0 0 153 49" fill="none" xmlns="http://www.w3.org/2000/svg">
<path d="M26.4992 0.0896006C28.8544 0.0896006 30.032 1.856 30.032 5.3888C30.032 7.6416 29.4176 10.24 28.1888 13.184C26.3968 17.4592 23.9648 20.7488 20.8928 23.0528C19.7152 23.9232 18.512 24.5888 17.2832 25.0496C16.0544 28.224 14.5056 30.5408 12.6368 32C15.1968 33.8944 17.0528 35.1232 18.2048 35.6864C19.3568 36.2752 20.4704 36.5696 21.5456 36.5696C23.4144 36.5696 24.6432 35.9168 25.232 34.6112C25.4112 34.2016 25.5008 33.8176 25.5008 33.4592C25.5008 33.1008 25.3984 32.7936 25.1936 32.5376C25.0144 32.3072 24.7968 32.192 24.5408 32.192C24.6176 31.8848 24.8096 31.7312 25.1168 31.7312C25.9872 31.7312 26.5632 32.2176 26.8448 33.1904C26.9472 33.5232 26.9984 33.8432 26.9984 34.1504C26.9984 34.9184 26.704 35.6352 26.1152 36.3008C25.296 37.2736 24.08 37.76 22.4672 37.76C20.4448 37.76 18.4992 37.1712 16.6304 35.9936C15.5808 35.3536 14.8128 34.8544 14.3264 34.496C13.8656 34.1376 13.0336 33.4976 11.8304 32.576C10.2432 33.5744 8.4896 34.0736 6.5696 34.0736C3.728 34.0736 1.8848 33.3568 1.04 31.9232C0.8096 31.488 0.6944 31.04 0.6944 30.5792C0.6944 30.0928 0.8992 29.5936 1.3088 29.0816C1.9488 28.288 2.8704 27.8912 4.0736 27.8912C5.9936 27.8912 8.3872 28.928 11.2544 31.0016C12.4064 29.824 13.4432 28.0704 14.3648 25.7408C14.1088 25.7664 13.7376 25.7792 13.2512 25.7792C9.0784 25.7792 6.0192 24.1152 4.0736 20.7872C2.896 18.7392 2.3072 16.4736 2.3072 13.9904C2.3072 13.1456 2.3712 12.288 2.4992 11.4176C2.96 8.1664 4.1632 5.6832 6.1088 3.968C7.44 2.8416 8.9504 2.2784 10.64 2.2784C12.3296 2.2784 13.6352 2.8288 14.5568 3.9296C15.4784 5.0304 15.9648 6.3872 16.016 8C16.016 8.2304 15.888 8.4224 15.632 8.576C15.376 8.704 15.12 8.7424 14.864 8.6912C14.608 8.6144 14.48 8.448 14.48 8.192C14.4288 6.656 14.1216 5.44 13.5584 4.544C12.9952 3.6224 11.984 3.1616 10.5248 3.1616C8.2208 3.1616 6.3648 4.4288 4.9568 6.9632C3.8304 8.96 3.2672 11.1616 3.2672 13.568C3.2672 17.9712 4.688 21.1584 7.5296 23.1296C9.0912 24.2304 10.9856 24.7808 13.2128 24.7808C13.7248 24.7808 14.2496 24.7424 14.7872 24.6656C15.376 23.0784 16.0032 21.0048 16.6688 18.4448C17.3344 15.8592 17.9232 13.6192 18.4352 11.7248C18.9728 9.8048 19.6 7.8976 20.3168 6.0032C21.8016 2.0608 23.8624 0.0896006 26.4992 0.0896006ZM26.0768 1.2032C24.2848 1.2032 22.9152 2.9312 21.968 6.3872C21.5072 8.0512 21.0976 9.7664 20.7392 11.5328C19.6896 16.9344 18.7168 20.9664 17.8208 23.6288C20.9696 22.016 23.5424 18.9952 25.5392 14.5664C27.152 11.0336 27.9456 7.7824 27.92 4.8128C27.8432 2.4576 27.2288 1.2544 26.0768 1.2032ZM10.5632 31.6544C8.0544 29.7856 5.8912 28.8512 4.0736 28.8512C2.9216 28.8512 2.192 29.2608 1.8848 30.08C1.552 30.8736 1.8976 31.6288 2.9216 32.3456C3.6896 32.8832 4.8544 33.152 6.416 33.152C7.9776 33.152 9.36 32.6528 10.5632 31.6544ZM34.14 8.9984C34.7288 8.9984 35.0232 9.3952 35.0232 10.1888C35.0232 10.9824 34.6392 11.6224 33.8712 12.1088C33.4872 12.3648 33.1544 12.4928 32.8729 12.4928C32.4632 12.4928 32.22 12.3648 32.1432 12.1088L32.1048 11.9936C32.3352 11.9936 32.5016 11.7504 32.604 11.264C32.7064 10.752 32.86 10.2528 33.0648 9.7664C33.2952 9.2544 33.6536 8.9984 34.14 8.9984ZM31.6824 31.0784C32.348 31.0784 33.2824 30.1952 34.4856 28.4288C35.6889 26.6624 36.7257 24.896 37.5961 23.1296L38.9016 20.48H39.9384C39.7848 20.7872 39.58 21.2096 39.324 21.7472C39.0936 22.2592 38.62 23.1936 37.9032 24.5504C37.1864 25.8816 36.4952 27.0592 35.8296 28.0832C35.1896 29.1072 34.46 30.0416 33.6408 30.8864C32.8472 31.7056 32.156 32.1152 31.5672 32.1152C29.6729 32.1152 28.7257 30.8864 28.7257 28.4288C28.7257 26.5856 29.2505 23.5904 30.3 19.4432C30.4024 19.008 30.4792 18.6752 30.5305 18.4448C30.6072 18.2144 30.684 17.92 30.7608 17.5616C30.8376 17.1776 30.9144 16.832 30.9912 16.5248C31.1192 15.9872 31.3496 15.7184 31.6824 15.7184C32.1432 15.7184 32.476 16.0512 32.6808 16.7168C32.7832 17.024 32.8344 17.3952 32.8344 17.8304C32.8344 18.2656 32.7832 18.7264 32.6808 19.2128C32.5784 19.6736 32.412 20.3648 32.1816 21.2864C31.9512 22.208 31.772 22.9632 31.644 23.552C31.516 24.1408 31.3752 24.8576 31.2216 25.7024C30.94 27.1104 30.7992 28.3648 30.7992 29.4656C30.7992 30.5408 31.0936 31.0784 31.6824 31.0784ZM45.2949 21.632C45.2949 23.9104 45.6533 25.0496 46.3702 25.0496C46.3446 25.3568 46.127 25.5104 45.7173 25.5104C45.0773 25.5104 44.5909 25.1264 44.2581 24.3584C43.9509 23.5648 43.7973 22.5792 43.7973 21.4016C42.7733 21.8368 41.7109 22.0928 40.6102 22.1696C39.2278 30.7968 38.0501 36.6976 37.0773 39.872C35.5925 44.864 33.8133 47.36 31.7397 47.36C30.3574 47.36 29.6662 46.6432 29.6662 45.2096C29.6662 44.5696 29.807 43.776 30.0886 42.8288C30.8822 40.1664 32.3542 37.3888 34.5046 34.496C35.503 33.1648 36.3734 32.2048 37.1158 31.616C37.2694 30.6432 37.5126 29.1072 37.8453 27.008C38.1781 24.8832 38.4342 23.2704 38.6134 22.1696H37.5766C37.4486 22.1696 37.3846 22.0544 37.3846 21.824C37.3846 21.568 37.4486 21.44 37.5766 21.44H38.7286C39.983 13.4272 41.3141 7.9104 42.7221 4.8896C43.2597 3.6864 43.8997 2.688 44.6421 1.8944C45.3845 1.1008 46.1909 0.704 47.0613 0.704C48.6741 0.704 49.4805 1.8816 49.4805 4.2368C49.4805 6.1568 48.8917 8.2304 47.7141 10.4576C46.2806 13.1456 44.5653 14.7968 42.5685 15.4112L41.6854 15.6032C41.4549 16.8576 41.1349 18.7904 40.7254 21.4016C41.8005 21.3248 42.8373 21.0432 43.8357 20.5568C43.9637 19.2 44.2709 18.048 44.7573 17.1008C45.2694 16.128 45.9093 15.6416 46.6773 15.6416C47.2917 15.6416 47.5989 16 47.5989 16.7168C47.5989 18.0736 46.8437 19.328 45.3333 20.48C45.3077 20.864 45.2949 21.248 45.2949 21.632ZM46.7157 9.92C47.8677 7.6928 48.4437 5.7472 48.4437 4.0832C48.4437 2.4192 48.0341 1.5872 47.215 1.5872C46.063 1.5872 45.0774 2.7136 44.2581 4.9664C43.4389 7.1936 42.6453 10.4064 41.8773 14.6048C43.7205 14.1952 45.3333 12.6336 46.7157 9.92ZM36.9238 32.7296C35.4646 34.24 34.0694 36.4032 32.7382 39.2192C31.407 42.0352 30.7414 43.9168 30.7414 44.864C30.7414 45.8368 31.023 46.3232 31.5862 46.3232C32.7638 46.3232 33.7622 45.1456 34.5814 42.7904C35.4006 40.4352 36.1814 37.0816 36.9238 32.7296ZM45.4485 19.4432C45.9093 19.008 46.2549 18.5472 46.4853 18.0608C46.7413 17.5744 46.8693 17.1904 46.8693 16.9088C46.8693 16.6016 46.7925 16.4224 46.6389 16.3712C46.0757 16.3712 45.6789 17.3952 45.4485 19.4432ZM50.6319 26.3936C50.6319 29.4912 51.7327 31.04 53.9343 31.04C54.7535 31.04 55.6111 30.6816 56.5071 29.9648C57.4287 29.2224 58.2607 28.3392 59.0031 27.3152C60.6415 24.96 61.7935 23.04 62.4591 21.5552L62.9583 20.48H63.9951C63.5599 21.504 62.9199 22.7712 62.0751 24.2816C61.2303 25.7664 60.4239 27.0208 59.6559 28.0448C58.8879 29.0688 57.9791 30.0032 56.9295 30.848C55.8799 31.6672 54.8815 32.0768 53.9343 32.0768C50.1455 32.0768 48.2511 29.952 48.2511 25.7024C48.2511 23.7312 48.8271 21.76 49.9791 19.7888C51.5663 17.0496 53.5247 15.68 55.8543 15.68C57.4927 15.68 58.3119 16.576 58.3119 18.368C58.3119 19.6992 57.7999 21.0816 56.7759 22.5152C55.3423 24.4608 53.6655 25.4464 51.7455 25.472C51.4639 25.472 51.2847 25.344 51.2079 25.088L51.1695 24.9344C52.5007 24.9344 53.7679 24.064 54.9711 22.3232C56.1999 20.5568 56.8143 19.0848 56.8143 17.9072C56.8143 17.1136 56.5071 16.7168 55.8927 16.7168C54.5359 16.7168 53.2687 17.9072 52.0911 20.288C51.1183 22.3104 50.6319 24.3456 50.6319 26.3936ZM87.8703 31.0784C89.6623 31.0784 91.7487 29.4784 94.1295 26.2784C94.9743 21.3888 95.5887 18.3296 95.9727 17.1008C96.7663 14.4128 97.8671 13.0688 99.2751 13.0688C100.197 13.0688 100.658 13.6192 100.658 14.72C100.658 15.3344 100.517 16.1024 100.235 17.024C99.5439 19.3792 98.2767 21.9648 96.4335 24.7808C95.7167 30.6688 94.7439 35.1232 93.5151 38.144C92.2095 41.344 90.6223 43.6992 88.7536 45.2096C87.7295 46.0544 86.4879 46.7456 85.0287 47.2832C83.5696 47.8208 81.9696 48.0896 80.2287 48.0896C76.4143 48.0896 73.7392 46.7712 72.2032 44.1344C71.4608 42.8544 71.0896 41.6256 71.0896 40.448C71.0896 39.296 71.2304 38.2592 71.512 37.3376C72.1776 35.0336 73.4448 33.408 75.3135 32.4608C76.2095 32.0256 77.1695 31.808 78.1935 31.808C80.9071 31.808 82.7631 32.8576 83.7615 34.9568C84.1967 35.8784 84.4143 36.7616 84.4143 37.6064C84.4143 38.4512 84.2607 39.2576 83.9535 40.0256C83.2879 41.792 82.1999 42.6752 80.6896 42.6752C80.4591 42.6752 80.2543 42.6112 80.0751 42.4832C79.8959 42.3552 79.7551 42.176 79.6527 41.9456C80.8047 41.9456 81.7007 41.1648 82.3407 39.6032C82.6479 38.8352 82.8015 38.0544 82.8015 37.2608C82.8015 36.4928 82.6223 35.6992 82.2639 34.88C81.5727 33.3184 80.1775 32.5376 78.0783 32.5376C75.9791 32.5376 74.328 33.5488 73.1248 35.5712C72.3056 36.928 71.896 38.3488 71.896 39.8336C71.896 40.448 71.9728 41.0752 72.1264 41.7152C72.664 44.1216 74.0464 45.7472 76.2735 46.592C77.2719 46.976 78.4111 47.168 79.6911 47.168C80.9967 47.168 82.2127 46.9632 83.3391 46.5536C84.4911 46.1696 85.4895 45.6576 86.3343 45.0176C87.2047 44.3776 87.9983 43.5584 88.7151 42.56C89.4319 41.5616 90.0335 40.5504 90.5199 39.5264C91.0319 38.5024 91.5055 37.312 91.9407 35.9552C92.5807 33.856 93.1951 31.2832 93.7839 28.2368C91.5055 30.7712 89.5472 32.0384 87.9088 32.0384C84.7343 32.0384 83.1471 30.3232 83.1471 26.8928C83.1471 25.4592 83.4287 23.8464 83.9919 22.0544C84.5807 20.2624 85.2079 18.6496 85.8735 17.216C86.5648 15.7568 87.192 14.1056 87.7552 12.2624C88.3439 10.3936 88.6383 8.64 88.6383 7.0016C88.6383 5.3632 88.1647 4.0448 87.2175 3.0464C86.2703 2.048 84.9648 1.5488 83.3008 1.5488C80.7407 1.5488 78.6543 2.8544 77.0415 5.4656C75.7871 7.5392 75.1599 9.728 75.1599 12.032C75.1599 14.9504 76.0175 16.8064 77.7327 17.6C78.2447 17.8304 78.7951 17.9456 79.3839 17.9456C81.3551 17.9456 82.8527 16.8448 83.8767 14.6432C83.9279 14.5408 84.0047 14.4896 84.1072 14.4896C84.2351 14.464 84.3375 14.4896 84.4143 14.5664C84.5167 14.6432 84.5423 14.7328 84.4911 14.8352C84.0047 16.0384 83.3263 17.0112 82.456 17.7536C81.5856 18.4704 80.5616 18.8288 79.3839 18.8288C77.0799 18.8288 75.5183 17.664 74.6991 15.3344C74.3664 14.336 74.2 13.2096 74.2 11.9552C74.2 10.7008 74.4688 9.2928 75.0063 7.7312C76.0047 4.7872 77.6047 2.7136 79.8063 1.5104C80.9071 0.921601 82.0719 0.627201 83.3008 0.627201C85.6559 0.627201 87.4607 1.4336 88.7151 3.0464C89.9695 4.6336 90.5967 6.7456 90.5967 9.3824C90.5967 11.3024 90.1743 13.4656 89.3295 15.872C88.5103 18.2528 87.6783 20.544 86.8335 22.7456C86.0143 24.9472 85.6047 26.7648 85.6047 28.1984C85.6047 30.1184 86.3599 31.0784 87.8703 31.0784ZM99.0831 14.2976C98.4431 14.2976 97.9695 14.9248 97.6623 16.1792C97.3551 17.4336 97.0352 19.4816 96.7024 22.3232C98.5455 19.072 99.5055 16.6912 99.5823 15.1808C99.5823 14.6176 99.4159 14.3232 99.0831 14.2976ZM104.977 26.9312C104.977 29.6192 105.694 30.9632 107.127 30.9632C108.1 30.9632 109.009 30.3616 109.854 29.1584C111.467 26.9056 112.452 23.936 112.811 20.2496C111.915 19.8656 111.287 19.2384 110.929 18.368C110.699 17.8304 110.583 17.3824 110.583 17.024C110.583 16.64 110.635 16.3072 110.737 16.0256C110.967 15.3344 111.39 14.9888 112.004 14.9888C112.619 14.9888 113.079 15.3856 113.387 16.1792C113.719 16.9472 113.886 17.9328 113.886 19.136C113.886 19.2128 113.886 19.3024 113.886 19.4048C114.193 19.5072 114.641 19.5584 115.23 19.5584C115.844 19.5584 116.382 19.3152 116.843 18.8288C117.303 18.3424 117.534 17.8944 117.534 17.4848C117.534 17.3824 117.598 17.3184 117.726 17.2928C117.854 17.2416 117.969 17.2416 118.071 17.2928C118.199 17.344 118.263 17.4208 118.263 17.5232C118.263 18.2656 117.943 18.9696 117.303 19.6352C116.689 20.3008 115.857 20.6336 114.807 20.6336C114.551 20.6336 114.219 20.608 113.809 20.5568C113.655 22.2976 113.284 24.0256 112.695 25.7408C112.132 27.4304 111.339 28.9024 110.315 30.1568C109.291 31.3856 108.19 32 107.012 32C104.785 32 103.415 30.8096 102.903 28.4288C102.775 27.7376 102.711 27.0336 102.711 26.3168C102.711 24.704 103.083 22.976 103.825 21.1328C104.798 18.7264 106.001 17.2288 107.435 16.64C108.177 16.384 108.689 16.3456 108.971 16.5248C109.252 16.704 109.431 16.9088 109.508 17.1392C108.331 17.1392 107.281 18.24 106.359 20.4416C105.438 22.6432 104.977 24.8064 104.977 26.9312ZM129.479 17.984C130.119 17.984 130.439 18.5216 130.439 19.5968C130.439 20.3648 130.016 22.592 129.171 26.2784C128.327 29.9392 127.571 32.9728 126.906 35.3792C126.24 37.7856 125.613 39.5648 125.024 40.7168C124.435 41.8944 123.719 43.072 122.874 44.2496C122.055 45.4272 121.146 46.2336 120.147 46.6688C119.149 47.104 117.997 47.3216 116.692 47.3216C114.26 47.3216 113.044 46.08 113.044 43.5968C113.044 42.1376 113.594 40.5632 114.695 38.8736C116.282 36.3904 118.407 34.752 121.069 33.9584C122.016 33.6768 123.002 33.536 124.026 33.536C124.205 33.536 124.295 33.7152 124.295 34.0736C124.295 34.432 124.205 34.6112 124.026 34.6112C121.005 34.6112 118.471 35.8016 116.423 38.1824C114.912 39.9744 114.157 41.7024 114.157 43.3664C114.157 45.0304 114.797 45.9904 116.077 46.2464L116.692 46.2848C118.791 46.2848 120.455 45.4144 121.683 43.6736C122.938 41.9072 123.923 39.68 124.64 36.992C125.357 34.2784 126.279 30.0288 127.405 24.2432H127.098C124.333 29.44 122.055 32.0384 120.263 32.0384C118.24 32.0384 117.229 30.5152 117.229 27.4688C117.229 25.7024 117.69 23.7696 118.611 21.6704C119.891 18.8288 121.517 16.9728 123.488 16.1024C124.179 15.8208 124.871 15.68 125.562 15.68C126.279 15.68 126.842 15.8848 127.251 16.2944C127.661 16.704 127.866 17.1648 127.866 17.6768C127.866 17.9072 127.738 18.0224 127.482 18.0224C127.251 17.9968 127.136 17.8688 127.136 17.6384C127.136 17.408 127.008 17.2032 126.752 17.024C126.522 16.8192 126.176 16.7168 125.715 16.7168C124.103 16.7168 122.643 18.1632 121.338 21.056C120.109 23.744 119.495 26.2912 119.495 28.6976C119.495 30.1824 119.815 30.9248 120.455 30.9248C121.299 30.9248 122.4 29.9264 123.757 27.9296C125.805 24.9088 127.405 21.952 128.557 19.0592C128.864 18.3424 129.171 17.984 129.479 17.984ZM135.169 32.0384C133.147 32.0384 132.135 30.5152 132.135 27.4688C132.135 25.7024 132.596 23.7696 133.518 21.6704C134.798 18.8288 136.423 16.9728 138.395 16.1024C139.086 15.8208 139.777 15.68 140.468 15.68C141.185 15.68 141.748 15.8848 142.158 16.2944C142.567 16.704 142.772 17.1648 142.772 17.6768C142.772 17.9072 142.644 18.0224 142.388 18.0224C142.158 17.9968 142.043 17.8688 142.043 17.6384C142.043 17.408 141.915 17.2032 141.659 17.024C141.428 16.8192 141.083 16.7168 140.622 16.7168C139.009 16.7168 137.55 18.1632 136.244 21.056C135.015 23.744 134.401 26.2912 134.401 28.6976C134.401 30.1824 134.721 30.9248 135.361 30.9248C136.027 30.9248 136.82 30.3744 137.742 29.2736C138.689 28.1472 139.559 26.8416 140.353 25.3568C142.068 22.2336 143.079 20.224 143.387 19.328C143.694 18.432 144.027 17.984 144.385 17.984C145.025 17.984 145.345 18.5216 145.345 19.5968C145.345 19.9296 145.307 20.3136 145.23 20.7488C144.385 24.8448 143.924 27.2128 143.847 27.8528C143.796 28.4928 143.771 28.9536 143.771 29.2352C143.771 30.464 144.065 31.0784 144.654 31.0784C145.319 31.0784 146.254 30.1952 147.457 28.4288C148.66 26.6624 149.697 24.896 150.567 23.1296L151.873 20.48H152.91C152.756 20.7872 152.551 21.2096 152.295 21.7472C152.065 22.2592 151.591 23.1936 150.875 24.5504C150.158 25.8816 149.467 27.0592 148.801 28.0832C148.161 29.1072 147.431 30.0416 146.612 30.8864C145.819 31.7056 145.127 32.1152 144.539 32.1152C142.644 32.1152 141.697 30.7328 141.697 27.968C141.697 27.0464 141.799 25.9712 142.004 24.7424H141.735C139.124 29.6064 136.935 32.0384 135.169 32.0384Z" fill="#AFFF5C"/>
</svg>
